<?xml version="1.0" encoding="UTF-8" standalone="no"?>
<svg
   xmlns:dc="http://purl.org/dc/elements/1.1/"
   xmlns:cc="http://creativecommons.org/ns#"
   xmlns:rdf="http://www.w3.org/1999/02/22-rdf-syntax-ns#"
   xmlns:svg="http://www.w3.org/2000/svg"
   xmlns="http://www.w3.org/2000/svg"
   xmlns:sodipodi="http://sodipodi.sourceforge.net/DTD/sodipodi-0.dtd"
   xmlns:inkscape="http://www.inkscape.org/namespaces/inkscape"
   width="50in"
   height="50in"
   viewBox="-6.3998647 -15.872108 1269.9999 1270"
   version="1.1"
   id="svg2"
   inkscape:version="0.91 r13725"
   sodipodi:docname="robot.svg">
  <metadata
     id="metadata14">
    <rdf:RDF>
      <cc:Work
         rdf:about="">
        <dc:format>image/svg+xml</dc:format>
        <dc:type
           rdf:resource="http://purl.org/dc/dcmitype/StillImage" />
        <dc:title>svgOutput</dc:title>
      </cc:Work>
    </rdf:RDF>
  </metadata>
  <defs
     id="defs12" />
  <sodipodi:namedview
     pagecolor="#ffffff"
     bordercolor="#666666"
     borderopacity="1"
     objecttolerance="10"
     gridtolerance="10"
     guidetolerance="10"
     inkscape:pageopacity="0"
     inkscape:pageshadow="2"
     inkscape:window-width="1920"
     inkscape:window-height="1015"
     id="namedview10"
     showgrid="false"
     inkscape:zoom="0.13845183"
     inkscape:cx="3476.4326"
     inkscape:cy="1983.7764"
     inkscape:window-x="0"
     inkscape:window-y="0"
     inkscape:window-maximized="1"
     inkscape:current-layer="svg2"
     units="in" />
  <title
     id="title4">svgOutput</title>
  <desc
     id="desc6">made with tinkercad</desc>
  <path
     id="path4179"
     d="m 587.32601,724.85038 c 0.23627,1.67059 0.0544,-1.90449 0,0 z m 113.6683,-488.31609 c 25.57043,0 46.30979,21.93755 46.30979,48.95011 0,27.05549 -20.72903,48.96335 -46.30979,48.96335 -25.58079,0 -46.27397,-21.90786 -46.27397,-48.96335 0,-27.02576 20.70351,-48.95011 46.27397,-48.95011 z m -136.20143,0 c 25.58076,0 46.30979,21.93755 46.30979,48.95011 0.0102,27.05549 -20.72903,48.96335 -46.30979,48.96335 -25.54981,0 -46.27398,-21.90786 -46.27398,-48.96335 0,-27.02576 20.72417,-48.95011 46.27398,-48.95011 z M 549.64107,3.8685645 l 0,0.00661 c -10.67785,-3.861e-4 -19.33417,8.5106205 -19.33499,19.0103095 3.4e-4,9.758936 7.51448,17.932949 17.38865,18.91495 l 25.61056,102.588846 -80.66927,0 0,24.9447 c -48.08121,2.30958 -67.9196,42.34054 -69.55067,74.6588 0,40.75451 40.06139,73.47324 69.55067,74.70345 l 0,105.06162 67.86398,0 0,49.12817 -177.76362,0 0,34.0877 c -35.53858,5.52067 -78.51118,21.11265 -117.63045,53.62279 -47.38475,39.16593 -85.7586,105.3408 -89.85524,200.07955 -33.89784,12.56914 -58.26015,46.28713 -58.26015,86.34733 0,50.66264 38.81605,91.7956 86.79931,91.81869 l 0,-40.78001 c -26.6436,0 -48.18144,-22.86788 -48.27433,-51.05852 0.0828,-28.20052 21.62042,-51.03216 48.27433,-51.07505 26.68487,0 48.19421,22.86132 48.25616,51.07505 l 38.57955,0 c -0.041,-40.98747 -25.58703,-75.28949 -60.66124,-87.07329 4.48872,-77.65533 33.76084,-123.98155 69.0827,-154.05969 26.72616,-22.64029 58.12682,-34.94588 83.70756,-40.29162 l 0,216.84806 -0.0799,0 0,22.4229 0.0799,0 0,79.82811 44.61812,0 0,200.19388 -0.25358,-0.1218 -2.52126,12.2408 c -0.16953,-0.2686 -0.30759,-0.5297 -0.40843,-0.7822 -35.28026,15.062 -42.17255,49.5434 -43.42584,90.5344 l -0.4972,0 c 107.34219,0.259 155.102,0.2838 178.74204,0.2838 -0.55784,-41.9707 -6.07793,-76.685 -43.34481,-91.564 l 0,-0.1885 c -0.0565,0.1481 -0.12782,0.2996 -0.21277,0.4575 l -1.35159,-6.5616 0,-204.50222 237.67906,0 0,205.38352 -1.08368,5.2614 c -0.0259,-0.045 -0.056,-0.09 -0.0799,-0.1345 l 0,-0.2343 c -37.67508,14.7343 -48.31393,48.9528 -51.27238,90.7179 l -0.15104,0 -0.002,0 c 96.94141,-0.1021 185.47803,0.01 184.20677,0 -0.63573,-41.1884 -6.30066,-75.2357 -42.54059,-90.1705 l -2.06429,-10.0211 -0.28663,0.1378 0,-201.11824 44.61866,0 0,-80.35618 0.0154,0 0,-22.42289 -0.0154,0 0,-216.1122 c 25.5601,5.32265 56.95721,17.61495 83.6535,40.25194 35.34486,30.06824 64.60426,76.37842 69.10326,154.04372 -35.0743,11.79367 -60.68666,46.09854 -60.7176,87.1091 l 38.5814,0 c 0.019,-28.16753 21.6234,-51.04206 48.3289,-51.07505 26.6126,0.033 48.1735,22.89431 48.2561,51.07505 -0.082,28.14774 -21.6435,51.01562 -48.2561,51.05852 l 0,40.76017 c 47.9214,0 86.7993,-41.11975 86.7993,-91.81869 -0.019,-40.1031 -24.4527,-73.76487 -58.2783,-86.29111 -4.138,-94.74863 -42.5688,-160.9401 -89.8917,-200.11593 -39.14236,-32.50026 -82.07899,-48.08559 -117.59693,-53.60625 l 0,-34.10424 -178.00066,0 0,-49.12817 68.06463,0 0,-101.97646 c 38.7519,-0.31408 70.09638,-33.67441 70.09638,-74.75086 0,-41.08242 -24.4363,-73.97015 -70.09638,-74.69022 l 0,-27.95103 -83.0891,0 34.59646,-44.636826 -3.2742,-2.672842 -26.11989,-51.913457 c 2.26475,-3.183009 3.4837,-6.972043 3.4925,-10.856736 -8.2e-4,-10.499677 -8.6577,-19.010681 -19.33552,-19.010311 -10.67785,-3.92e-4 -19.33417,8.510617 -19.33499,19.010311 0.003,10.498407 8.65844,19.007949 19.33499,19.007556 1.66367,4.18e-4 3.32068,-0.210625 4.92952,-0.627281 l 21.60874,42.963922 -37.7792,48.729054 -79.65062,0 -26.68347,-106.809499 c 4.49046,-3.602448 7.10051,-8.995659 7.11177,-14.694298 -8.2e-4,-10.499691 -8.65711,-19.0107002 -19.33496,-19.0103085 z"
     inkscape:connector-curvature="0" />
</svg>
